<?xml version="1.0" standalone="no"?>
<!DOCTYPE svg PUBLIC "-//W3C//DTD SVG 20010904//EN"
 "http://www.w3.org/TR/2001/REC-SVG-20010904/DTD/svg10.dtd">
<svg version="1.0" xmlns="http://www.w3.org/2000/svg"
 width="213.000000pt" height="213.000000pt" viewBox="0 0 213.000000 213.000000"
 preserveAspectRatio="xMidYMid meet">
<metadata>
Created by potrace 1.14, written by Peter Selinger 2001-2017
</metadata>
<g transform="translate(0.000000,213.000000) scale(0.100000,-0.100000)"
fill="#000000" stroke="none">
<path d="M1471 2039 c-65 -21 -135 -63 -177 -107 -69 -73 -116 -198 -105 -282
1 -11 50 -6 121 12 49 13 143 68 172 101 70 81 107 163 113 249 l3 46 -39 -1
c-22 -1 -61 -9 -88 -18z"/>
<path d="M1034 1932 c-26 -17 -32 -55 -32 -220 0 -95 -2 -175 -4 -178 -3 -2
-50 14 -105 36 -119 47 -173 59 -257 55 -204 -11 -375 -169 -433 -402 -18 -72
-25 -329 -11 -410 15 -87 64 -262 77 -276 5 -5 35 5 68 22 168 86 429 79 676
-17 l73 -28 -33 49 c-49 73 -49 131 2 279 19 56 35 113 35 126 0 28 -21 37
-49 23 -16 -9 -19 -18 -15 -40 5 -23 1 -32 -17 -45 -57 -37 -129 -25 -180 31
-40 42 -59 86 -65 150 -8 78 17 115 107 161 222 113 412 -78 470 -470 13 -93
19 -324 9 -408 -17 -152 -28 -181 -86 -237 -30 -28 -54 -53 -54 -55 0 -12 128
-7 186 8 226 56 424 263 503 524 35 116 35 115 47 197 3 26 8 57 10 68 9 42 5
213 -5 275 -34 207 -113 335 -255 415 -148 83 -261 82 -464 -1 -45 -19 -84
-34 -87 -34 -3 0 -5 82 -5 183 0 171 -1 185 -20 205 -20 22 -64 29 -86 14z
m696 -490 c85 -95 143 -257 154 -427 7 -92 -5 -77 -24 30 -30 170 -98 325
-193 438 -40 49 -40 50 -10 29 17 -12 50 -44 73 -70z"/>
<path d="M495 550 c-62 -14 -135 -44 -135 -54 0 -2 28 5 63 16 96 31 272 32
415 3 61 -13 122 -26 134 -29 32 -8 -40 25 -77 35 -117 32 -161 40 -240 43
-61 2 -113 -2 -160 -14z"/>
</g>
</svg>
